<?xml version="1.0" encoding="UTF-8"?>
<svg id="Layer_2" data-name="Layer 2" xmlns="http://www.w3.org/2000/svg" viewBox="0 0 653 300">
  <defs>
    <style>
      .cls-1, .cls-2, .cls-3, .cls-4 {
        fill: #fff;
      }

      .cls-2 {
        font-family: Inter-Light, Inter;
        font-variation-settings: 'opsz' 14, 'wght' 300;
        font-weight: 300;
      }

      .cls-2, .cls-3 {
        font-size: 175.91px;
      }

      .cls-5 {
        fill: #07ff00;
      }

      .cls-6 {
        letter-spacing: -.03em;
      }

      .cls-3 {
        font-family: Inter-Black, Inter;
        font-variation-settings: 'opsz' 14, 'wght' 900;
        font-weight: 800;
      }

      .cls-4 {
        opacity: .2;
      }

      .cls-7 {
        fill: #26ff00;
      }
    </style>
  </defs>
  <g id="handle">
    <path class="cls-1" d="m99.32,151.49c-5.27,2.05-8.82,5.62-8.2,8.12l19.72-7.68c-1.23-2.27-6.26-2.49-11.53-.44Z"/>
    <ellipse class="cls-1" cx="118.79" cy="201.48" rx="10.62" ry="4.88" transform="translate(-65.03 56.86) rotate(-21.28)"/>
    <path class="cls-1" d="m116.6,195.87c4.34-1.69,8.53-2,10.99-1.03l-16.61-42.65c.98,2.51-2.66,6.27-8.12,8.4-5.46,2.13-10.68,1.82-11.66-.69l16.61,42.65c1.16-2.38,4.45-4.98,8.79-6.67Z"/>
    <path class="cls-1" d="m102.86,160.58c5.46-2.13,9.1-5.89,8.12-8.4h0c-.04-.09-.09-.17-.13-.26l-19.72,7.68c.02.09.04.19.07.28h0c.98,2.51,6.2,2.82,11.66.69Z"/>
  </g>
  <circle id="glass" class="cls-4" cx="84.12" cy="72.9" r="46.76"/>
  <path id="side_outer" class="cls-1" d="m103.91,146.06c-28.11,7.18-65.66-2.83-83.77-35C3.87,82.15,9.03,45.54,32.77,22.12,4.08,47.67-5.94,86.04,6.95,116.22c8.12,19.02,26.2,36.81,49.35,43.03,14.35,3.86,26.41,2.13,31.56,1.15.63-.12,1.25-.26,1.88-.4-.03-.07-.08-.13-.11-.21-1.11-2.85,3.02-7.12,9.22-9.54,6.07-2.37,11.87-2.07,13.15.61,13.64-8.51,21.57-19.54,24.06-23.18-5.96,5.76-16.69,14.42-32.13,18.36Z"/>
  <rect class="cls-7" x="50.96" y="66.9" width="65.03" height="9.85" rx="4.37" ry="4.37" transform="translate(8.79 152.75) rotate(-88.01)"/>
  <path class="cls-5" d="m74.78,87.17l-15.08-10.12,10.31-15.36c1.52-2.26.91-5.32-1.35-6.84s-5.32-.91-6.84,1.35l-12.71,18.94c-.13.15-.26.31-.38.49h0c-1.52,2.26-.91,5.32,1.35,6.84l19.21,12.89c2.26,1.52,5.32.91,6.84-1.35s.91-5.32-1.35-6.84Z"/>
  <path class="cls-5" d="m92.6,57.22l16.37,7.88-8.03,16.67c-1.18,2.45-.15,5.4,2.3,6.58s5.4.15,6.58-2.3l9.89-20.55c.11-.17.22-.35.31-.54h0c1.18-2.45.15-5.4-2.3-6.58l-20.85-10.03c-2.45-1.18-5.4-.15-6.58,2.3s-.15,5.4,2.3,6.58Z"/>
  <path id="frame_front" class="cls-1" d="m128.59,124.83l2.3-4.59-4.02.57-1.43-6.04-3.16,3.75-3.3-8.65c-9.04,8.46-21.18,13.64-34.54,13.64-27.93,0-50.56-22.64-50.56-50.56s22.64-50.56,50.56-50.56c14.63,0,27.8,6.21,37.04,16.15l2.52-14.1,9.18-1.36-4.59-3.24,3.16-1.18C119.09,7.61,102.55.92,84.44.92,44.67.92,12.43,33.16,12.43,72.93s32.24,72.01,72.01,72.01c19.69,0,37.54-7.91,50.54-20.72l-6.39.6Z"/>
  <g id="TEXT2">
    <text class="cls-2" transform="translate(172.24 290.42)"><tspan x="0" y="0">CODE</tspan></text>
  </g>
  <g id="TEXT1">
    <text class="cls-3" transform="translate(140.64 136.94)"><tspan x="0" y="0">R</tspan><tspan class="cls-6" x="117.5" y="0">A</tspan><tspan x="251.32" y="0">CK</tspan></text>
  </g>
</svg>